<svg xmlns="http://www.w3.org/2000/svg" viewBox="0 0 627 148"><rect width="627" height="148" fill="#0E1726"/><g transform="translate(22,22.0) scale(1.0400)"><g fill="none" stroke="#F7FAF9" stroke-width="8.5" stroke-linecap="round" stroke-linejoin="round"><path d="M37 27 H25 V73 H37"/><path d="M63 27 H75 V73 H63"/></g><path d="M38 52 L46 60 L62 40" fill="none" stroke="#2DD4BF" stroke-width="10" stroke-linecap="round" stroke-linejoin="round"/></g><g transform="translate(0,94.0)"><path d="M174.792 0.74Q167.17 0.74 162.582 -3.4779999999999998Q157.994 -7.696 157.994 -15.021999999999998V-25.677999999999997Q157.994 -33.004 162.582 -37.221999999999994Q167.17 -41.44 174.792 -41.44Q182.192 -41.44 186.632 -37.592Q191.072 -33.744 191.368 -27.084H183.45Q183.228 -30.561999999999998 180.897 -32.486Q178.566 -34.41 174.792 -34.41Q170.722 -34.41 168.35399999999998 -32.153Q165.986 -29.895999999999997 165.986 -25.752V-15.021999999999998Q165.986 -10.804 168.35399999999998 -8.547Q170.722 -6.29 174.792 -6.29Q178.64 -6.29 180.934 -8.214Q183.228 -10.138 183.45 -13.69H191.368Q191.072 -7.029999999999999 186.632 -3.1449999999999996Q182.192 0.74 174.792 0.74Z M218.6 0.6659999999999999Q211.052 0.6659999999999999 206.575 -3.6999999999999993Q202.098 -8.065999999999999 202.098 -15.613999999999999V-25.086Q202.098 -32.708 206.538 -37.037Q210.978 -41.366 218.6 -41.366Q226.222 -41.366 230.662 -37.037Q235.102 -32.708 235.102 -25.086V-15.613999999999999Q235.102 -8.065999999999999 230.625 -3.6999999999999993Q226.148 0.6659999999999999 218.6 0.6659999999999999ZM218.6 -6.364Q222.596 -6.364 224.853 -8.621Q227.11 -10.878 227.11 -15.096V-25.604Q227.11 -29.822 224.853 -32.079Q222.596 -34.336 218.6 -34.336Q214.604 -34.336 212.347 -32.079Q210.09 -29.822 210.09 -25.604V-15.096Q210.09 -10.878 212.347 -8.621Q214.604 -6.364 218.6 -6.364Z M247.01600000000002 0.0V-40.699999999999996H254.934V-32.93Q255.526 -36.925999999999995 258.375 -39.18299999999999Q261.224 -41.44 265.812 -41.44Q271.88 -41.44 275.506 -37.555Q279.132 -33.67 279.132 -27.084V0.0H271.14V-25.9Q271.14 -30.118 268.994 -32.375Q266.848 -34.632 263.148 -34.632Q259.374 -34.632 257.19100000000003 -32.263999999999996Q255.008 -29.895999999999997 255.008 -25.677999999999997V0.0Z M300.592 0.0V-27.898H289.048V-35.15H300.592V-42.994Q300.592 -48.099999999999994 303.84799999999996 -51.059999999999995Q307.104 -54.019999999999996 312.728 -54.019999999999996H324.642V-46.916H312.876Q308.584 -46.916 308.584 -42.919999999999995V-35.15H324.642V-27.898H308.584V0.0Z M351.79999999999995 0.6659999999999999Q344.25199999999995 0.6659999999999999 339.775 -3.6999999999999993Q335.29799999999994 -8.065999999999999 335.29799999999994 -15.613999999999999V-25.086Q335.29799999999994 -32.708 339.73799999999994 -37.037Q344.17799999999994 -41.366 351.79999999999995 -41.366Q359.42199999999997 -41.366 363.86199999999997 -37.037Q368.30199999999996 -32.708 368.30199999999996 -25.086V-15.613999999999999Q368.30199999999996 -8.065999999999999 363.82499999999993 -3.6999999999999993Q359.34799999999996 0.6659999999999999 351.79999999999995 0.6659999999999999ZM351.79999999999995 -6.364Q355.79599999999994 -6.364 358.05299999999994 -8.621Q360.30999999999995 -10.878 360.30999999999995 -15.096V-25.604Q360.30999999999995 -29.822 358.05299999999994 -32.079Q355.79599999999994 -34.336 351.79999999999995 -34.336Q347.804 -34.336 345.54699999999997 -32.079Q343.28999999999996 -29.822 343.28999999999996 -25.604V-15.096Q343.28999999999996 -10.878 345.54699999999997 -8.621Q347.804 -6.364 351.79999999999995 -6.364Z M381.69599999999997 0.0V-40.699999999999996H389.6139999999999V-32.708Q390.20599999999996 -36.778 393.092 -39.108999999999995Q395.97799999999995 -41.44 400.71399999999994 -41.44Q407.00399999999996 -41.44 410.48199999999997 -37.518Q413.9599999999999 -33.596 413.9599999999999 -26.491999999999997V-22.866H405.96799999999996V-26.27Q405.96799999999996 -34.484 397.90199999999993 -34.484Q393.90599999999995 -34.484 391.7969999999999 -32.153Q389.68799999999993 -29.822 389.68799999999993 -25.381999999999998V0.0Z M422.32199999999995 0.0V-40.699999999999996H429.12999999999994V-35.001999999999995H429.2779999999999Q429.5739999999999 -37.888 431.4239999999999 -39.664Q433.27399999999994 -41.44 436.0859999999999 -41.44Q438.74999999999994 -41.44 440.63699999999994 -39.775Q442.52399999999994 -38.11 443.2639999999999 -35.297999999999995Q443.7079999999999 -38.11 445.5579999999999 -39.775Q447.4079999999999 -41.44 450.2939999999999 -41.44Q454.0679999999999 -41.44 456.47299999999996 -38.516999999999996Q458.87799999999993 -35.594 458.87799999999993 -31.006V0.0H451.6259999999999V-30.636Q451.6259999999999 -32.856 450.5899999999999 -34.150999999999996Q449.5539999999999 -35.446 447.7039999999999 -35.446Q445.8539999999999 -35.446 444.8549999999999 -34.188Q443.85599999999994 -32.93 443.85599999999994 -30.709999999999997V0.0H437.34399999999994V-30.636Q437.34399999999994 -32.856 436.3449999999999 -34.150999999999996Q435.3459999999999 -35.446 433.4959999999999 -35.446Q431.6459999999999 -35.446 430.6099999999999 -34.188Q429.5739999999999 -32.93 429.5739999999999 -30.709999999999997V0.0Z" fill="#F7FAF9"/><path d="M470.20 -20.47 L483.03 -7.65 L508.68 -39.71" fill="none" stroke="#2DD4BF" stroke-width="16.03" stroke-linecap="round" stroke-linejoin="round"/><path d="M538.28 0.74Q530.8059999999999 0.74 526.2919999999999 -3.626Q521.7779999999999 -7.992 521.7779999999999 -15.54V-25.16Q521.7779999999999 -32.708 526.2919999999999 -37.074Q530.8059999999999 -41.44 538.28 -41.44Q543.3119999999999 -41.44 547.012 -39.479Q550.7119999999999 -37.518 552.7469999999998 -33.966Q554.7819999999999 -30.413999999999998 554.7819999999999 -25.677999999999997V-18.352H529.4739999999999V-15.021999999999998Q529.4739999999999 -10.729999999999999 531.8419999999999 -8.361999999999998Q534.2099999999999 -5.994 538.28 -5.994Q541.6099999999999 -5.994 543.8299999999999 -7.215Q546.05 -8.436 546.4939999999999 -10.581999999999999H554.4119999999999Q553.598 -5.402 549.1949999999999 -2.331Q544.7919999999999 0.74 538.28 0.74ZM529.4739999999999 -25.677999999999997V-23.976H547.0859999999999V-25.752Q547.0859999999999 -30.266 544.7919999999999 -32.708Q542.4979999999999 -35.15 538.28 -35.15Q534.0619999999999 -35.15 531.7679999999999 -32.671Q529.4739999999999 -30.192 529.4739999999999 -25.677999999999997Z M579.646 0.74Q573.5779999999999 0.74 569.9519999999999 -3.404Q566.3259999999999 -7.548 566.3259999999999 -14.578V-26.048Q566.3259999999999 -33.152 569.9519999999999 -37.296Q573.5779999999999 -41.44 579.646 -41.44Q584.012 -41.44 587.0089999999999 -39.22Q590.0059999999999 -37.0 590.8939999999999 -33.004L590.6719999999999 -42.402V-54.019999999999996H598.6639999999999V0.0H590.7459999999999V-7.696Q589.9319999999999 -3.6999999999999997 587.0089999999999 -1.48Q584.0859999999999 0.74 579.646 0.74ZM582.4579999999999 -6.215999999999999Q586.3059999999999 -6.215999999999999 588.4889999999999 -8.547Q590.6719999999999 -10.878 590.6719999999999 -15.17V-25.604Q590.6719999999999 -29.822 588.4889999999999 -32.153Q586.3059999999999 -34.484 582.4579999999999 -34.484Q578.6099999999999 -34.484 576.4639999999999 -32.449Q574.3179999999999 -30.413999999999998 574.3179999999999 -25.974V-14.799999999999999Q574.3179999999999 -10.286 576.4639999999999 -8.251Q578.6099999999999 -6.215999999999999 582.4579999999999 -6.215999999999999Z" fill="#F7FAF9"/></g></svg>