<svg xmlns="http://www.w3.org/2000/svg" viewBox="0 0 734 244"><style>.brk,.chk,.hyph{stroke-dashoffset:0}.brk{animation:draw .55s ease both}.brk:nth-of-type(2){animation-delay:.18s}.chk{animation:draw .5s cubic-bezier(.3,.9,.3,1) .5s both}.word{opacity:1;animation:rise .55s ease .95s both}.hyph{animation:draw .4s ease 1.3s both}.tag{opacity:1;animation:rise .6s ease 1.6s both}.rule{transform-box:fill-box;transform-origin:center;animation:sweep .55s ease 2.05s both}@keyframes draw{from{stroke-dashoffset:100}to{stroke-dashoffset:0}}@keyframes rise{from{opacity:0;transform:translateY(9px)}to{opacity:1;transform:translateY(0)}}@keyframes sweep{from{transform:scaleX(0)}to{transform:scaleX(1)}}@media (prefers-reduced-motion:reduce){.brk,.chk,.hyph,.word,.tag,.rule{animation:none}}</style><g transform="translate(111.2,34.0) scale(0.9600)"><path class="brk" pathLength="100" d="M37 27 H25 V73 H37" fill="none" stroke="#0E1726" stroke-width="8.5" stroke-linecap="round" stroke-linejoin="round"/><path class="brk" pathLength="100" d="M63 27 H75 V73 H63" fill="none" stroke="#0E1726" stroke-width="8.5" stroke-linecap="round" stroke-linejoin="round"/><path class="chk" pathLength="100" d="M38 52 L46 60 L62 40" fill="none" stroke="#14B8A6" stroke-width="10" stroke-linecap="round" stroke-linejoin="round"/></g><g transform="translate(231.2,101.2)"><g class="word"><path d="M19.712 0.64Q13.120000000000001 0.64 9.152000000000001 -3.0080000000000005Q5.184 -6.656000000000001 5.184 -12.992V-22.208000000000002Q5.184 -28.544 9.152000000000001 -32.192Q13.120000000000001 -35.84 19.712 -35.84Q26.112000000000002 -35.84 29.952 -32.512Q33.792 -29.184 34.048 -23.424H27.2Q27.008 -26.432000000000002 24.991999999999997 -28.096000000000004Q22.976 -29.76 19.712 -29.76Q16.192 -29.76 14.144 -27.808Q12.096 -25.856 12.096 -22.272000000000002V-12.992Q12.096 -9.344 14.144 -7.3919999999999995Q16.192 -5.44 19.712 -5.44Q23.04 -5.44 25.024 -7.104000000000001Q27.008 -8.768 27.2 -11.84H34.048Q33.792 -6.08 29.952 -2.72Q26.112000000000002 0.64 19.712 0.64Z M57.599999999999994 0.5760000000000001Q51.072 0.5760000000000001 47.2 -3.2Q43.327999999999996 -6.976 43.327999999999996 -13.504V-21.696Q43.327999999999996 -28.288 47.16799999999999 -32.032000000000004Q51.007999999999996 -35.776 57.599999999999994 -35.776Q64.19200000000001 -35.776 68.03200000000001 -32.032000000000004Q71.872 -28.288 71.872 -21.696V-13.504Q71.872 -6.976 68.0 -3.2Q64.128 0.5760000000000001 57.599999999999994 0.5760000000000001ZM57.599999999999994 -5.5040000000000004Q61.056 -5.5040000000000004 63.008 -7.4559999999999995Q64.96000000000001 -9.408 64.96000000000001 -13.056000000000001V-22.144000000000002Q64.96000000000001 -25.792 63.008 -27.744Q61.056 -29.696 57.599999999999994 -29.696Q54.144 -29.696 52.19199999999999 -27.744Q50.239999999999995 -25.792 50.239999999999995 -22.144000000000002V-13.056000000000001Q50.239999999999995 -9.408 52.19199999999999 -7.4559999999999995Q54.144 -5.5040000000000004 57.599999999999994 -5.5040000000000004Z M82.176 0.0V-35.2H89.024V-28.48Q89.536 -31.936 92.0 -33.888000000000005Q94.464 -35.84 98.432 -35.84Q103.67999999999999 -35.84 106.816 -32.480000000000004Q109.952 -29.12 109.952 -23.424V0.0H103.03999999999999V-22.400000000000002Q103.03999999999999 -26.048000000000002 101.184 -28.0Q99.328 -29.952 96.128 -29.952Q92.864 -29.952 90.976 -27.904000000000003Q89.088 -25.856 89.088 -22.208000000000002V0.0Z M128.512 0.0V-24.128H118.52799999999999V-30.400000000000002H128.512V-37.184Q128.512 -41.6 131.32799999999997 -44.16Q134.14399999999998 -46.72 139.00799999999998 -46.72H149.31199999999998V-40.576H139.136Q135.42399999999998 -40.576 135.42399999999998 -37.12V-30.400000000000002H149.31199999999998V-24.128H135.42399999999998V0.0Z M172.79999999999998 0.5760000000000001Q166.272 0.5760000000000001 162.39999999999998 -3.2Q158.528 -6.976 158.528 -13.504V-21.696Q158.528 -28.288 162.368 -32.032000000000004Q166.208 -35.776 172.79999999999998 -35.776Q179.392 -35.776 183.232 -32.032000000000004Q187.072 -28.288 187.072 -21.696V-13.504Q187.072 -6.976 183.2 -3.2Q179.328 0.5760000000000001 172.79999999999998 0.5760000000000001ZM172.79999999999998 -5.5040000000000004Q176.256 -5.5040000000000004 178.208 -7.4559999999999995Q180.16 -9.408 180.16 -13.056000000000001V-22.144000000000002Q180.16 -25.792 178.208 -27.744Q176.256 -29.696 172.79999999999998 -29.696Q169.344 -29.696 167.392 -27.744Q165.44 -25.792 165.44 -22.144000000000002V-13.056000000000001Q165.44 -9.408 167.392 -7.4559999999999995Q169.344 -5.5040000000000004 172.79999999999998 -5.5040000000000004Z M198.656 0.0V-35.2H205.504V-28.288Q206.016 -31.808 208.512 -33.824Q211.008 -35.84 215.10399999999998 -35.84Q220.544 -35.84 223.55200000000002 -32.448Q226.56 -29.056 226.56 -22.912V-19.776H219.648V-22.72Q219.648 -29.824 212.672 -29.824Q209.216 -29.824 207.392 -27.808Q205.568 -25.792 205.568 -21.952V0.0Z M233.792 0.0V-35.2H239.68V-30.272000000000002H239.808Q240.064 -32.768 241.664 -34.304Q243.264 -35.84 245.696 -35.84Q248.0 -35.84 249.632 -34.400000000000006Q251.264 -32.96 251.904 -30.528000000000002Q252.288 -32.96 253.888 -34.400000000000006Q255.488 -35.84 257.984 -35.84Q261.248 -35.84 263.328 -33.312Q265.408 -30.784 265.408 -26.816V0.0H259.136V-26.496000000000002Q259.136 -28.416 258.24 -29.536Q257.344 -30.656000000000002 255.744 -30.656000000000002Q254.144 -30.656000000000002 253.28 -29.568Q252.416 -28.48 252.416 -26.560000000000002V0.0H246.784V-26.496000000000002Q246.784 -28.416 245.92000000000002 -29.536Q245.056 -30.656000000000002 243.45600000000002 -30.656000000000002Q241.856 -30.656000000000002 240.95999999999998 -29.568Q240.064 -28.48 240.064 -26.560000000000002V0.0Z" fill="#0E1726"/><path d="M334.08 0.64Q327.616 0.64 323.712 -3.136Q319.808 -6.912 319.808 -13.44V-21.76Q319.808 -28.288 323.712 -32.064Q327.616 -35.84 334.08 -35.84Q338.432 -35.84 341.632 -34.144000000000005Q344.832 -32.448 346.592 -29.376Q348.352 -26.304000000000002 348.352 -22.208000000000002V-15.872H326.464V-12.992Q326.464 -9.28 328.512 -7.231999999999999Q330.56 -5.184 334.08 -5.184Q336.96 -5.184 338.88 -6.24Q340.8 -7.296 341.18399999999997 -9.152000000000001H348.032Q347.328 -4.672 343.52 -2.016Q339.712 0.64 334.08 0.64ZM326.464 -22.208000000000002V-20.736H341.69599999999997V-22.272000000000002Q341.69599999999997 -26.176000000000002 339.712 -28.288000000000004Q337.728 -30.400000000000002 334.08 -30.400000000000002Q330.432 -30.400000000000002 328.448 -28.256Q326.464 -26.112000000000002 326.464 -22.208000000000002Z M369.856 0.64Q364.60799999999995 0.64 361.472 -2.9440000000000004Q358.33599999999996 -6.5280000000000005 358.33599999999996 -12.608V-22.528Q358.33599999999996 -28.672 361.472 -32.256Q364.60799999999995 -35.84 369.856 -35.84Q373.63199999999995 -35.84 376.22399999999993 -33.92Q378.816 -32.0 379.58399999999995 -28.544L379.392 -36.672000000000004V-46.72H386.304V0.0H379.45599999999996V-6.656000000000001Q378.75199999999995 -3.2 376.22399999999993 -1.28Q373.69599999999997 0.64 369.856 0.64ZM372.28799999999995 -5.376Q375.616 -5.376 377.504 -7.3919999999999995Q379.392 -9.408 379.392 -13.120000000000001V-22.144000000000002Q379.392 -25.792 377.504 -27.808Q375.616 -29.824 372.28799999999995 -29.824Q368.96 -29.824 367.104 -28.064Q365.248 -26.304000000000002 365.248 -22.464000000000002V-12.8Q365.248 -8.896 367.104 -7.136000000000001Q368.96 -5.376 372.28799999999995 -5.376Z" fill="#0E1726"/></g><path class="hyph" pathLength="100" d="M275.20 -17.71 L286.29 -6.61 L308.48 -34.35" fill="none" stroke="#14B8A6" stroke-width="13.87" stroke-linecap="round" stroke-linejoin="round"/></g><g transform="translate(34.0,194)"><g class="tag"><path d="M1.29 0.0 6.87 -21.9H11.129999999999999L16.74 0.0H13.44L12.12 -5.55H5.91L4.59 0.0ZM6.51 -8.25H11.49L9.99 -14.549999999999999Q9.6 -16.23 9.344999999999999 -17.46Q9.09 -18.689999999999998 9.0 -19.169999999999998Q8.91 -18.689999999999998 8.67 -17.46Q8.43 -16.23 8.01 -14.58Z M29.549999999999997 0.0Q27.21 0.0 25.815 -1.365Q24.42 -2.73 24.42 -5.01V-18.96H18.87V-21.9H27.66V-5.069999999999999Q27.66 -4.08 28.200000000000003 -3.51Q28.740000000000002 -2.94 29.67 -2.94H34.65V0.0Z M47.55 0.0Q45.21 0.0 43.815 -1.365Q42.42 -2.73 42.42 -5.01V-18.96H36.87V-21.9H45.66V-5.069999999999999Q45.66 -4.08 46.2 -3.51Q46.74 -2.94 47.67 -2.94H52.65V0.0Z M77.13 5.3999999999999995 79.53 -0.96 73.35 -16.5H76.8L80.31 -7.199999999999999Q80.58 -6.54 80.82 -5.76Q81.06 -4.9799999999999995 81.15 -4.38Q81.27 -4.9799999999999995 81.495 -5.76Q81.72 -6.54 81.96 -7.199999999999999L85.23 -16.5H88.65L80.52 5.3999999999999995Z M99.0 0.27Q95.94 0.27 94.125 -1.5Q92.31 -3.27 92.31 -6.33V-10.17Q92.31 -13.26 94.11 -15.015Q95.91 -16.77 99.0 -16.77Q102.09 -16.77 103.89 -15.015Q105.69 -13.26 105.69 -10.17V-6.33Q105.69 -3.27 103.875 -1.5Q102.06 0.27 99.0 0.27ZM99.0 -2.58Q100.62 -2.58 101.535 -3.495Q102.45 -4.41 102.45 -6.12V-10.379999999999999Q102.45 -12.09 101.535 -13.004999999999999Q100.62 -13.92 99.0 -13.92Q97.38 -13.92 96.465 -13.004999999999999Q95.55 -12.09 95.55 -10.379999999999999V-6.12Q95.55 -4.41 96.465 -3.495Q97.38 -2.58 99.0 -2.58Z M116.97 0.3Q113.97 0.3 112.215 -1.425Q110.46 -3.15 110.46 -6.12V-16.5H113.7V-6.1499999999999995Q113.7 -4.47 114.57 -3.495Q115.44 -2.52 116.97 -2.52Q118.53 -2.52 119.41499999999999 -3.495Q120.3 -4.47 120.3 -6.1499999999999995V-16.5H123.53999999999999V-6.12Q123.53999999999999 -3.15 121.755 -1.425Q119.97 0.3 116.97 0.3Z M129.12 0.0V-16.5H132.33V-13.26Q132.57 -14.91 133.74 -15.855Q134.91 -16.8 136.83 -16.8Q139.38 -16.8 140.79 -15.21Q142.2 -13.62 142.2 -10.74V-9.27H138.96V-10.65Q138.96 -13.979999999999999 135.69 -13.979999999999999Q134.07 -13.979999999999999 133.215 -13.035Q132.36 -12.09 132.36 -10.29V0.0Z" fill="#0E1726"/><path d="M171.24 0.3Q168.15 0.3 166.29000000000002 -1.4100000000000001Q164.43 -3.12 164.43 -6.09V-10.41Q164.43 -13.379999999999999 166.29000000000002 -15.09Q168.15 -16.8 171.24 -16.8Q174.24 -16.8 176.04000000000002 -15.24Q177.84 -13.68 177.96 -10.98H174.75Q174.66 -12.389999999999999 173.715 -13.169999999999998Q172.77 -13.95 171.24 -13.95Q169.59 -13.95 168.63 -13.035Q167.67 -12.12 167.67 -10.44V-6.09Q167.67 -4.38 168.63 -3.465Q169.59 -2.55 171.24 -2.55Q172.8 -2.55 173.73000000000002 -3.3299999999999996Q174.66 -4.109999999999999 174.75 -5.55H177.96Q177.84 -2.85 176.04000000000002 -1.2750000000000001Q174.24 0.3 171.24 0.3Z M189.0 0.27Q185.94 0.27 184.125 -1.5Q182.31 -3.27 182.31 -6.33V-10.17Q182.31 -13.26 184.11 -15.015Q185.91 -16.77 189.0 -16.77Q192.09 -16.77 193.89 -15.015Q195.69 -13.26 195.69 -10.17V-6.33Q195.69 -3.27 193.875 -1.5Q192.06 0.27 189.0 0.27ZM189.0 -2.58Q190.62 -2.58 191.535 -3.495Q192.45 -4.41 192.45 -6.12V-10.379999999999999Q192.45 -12.09 191.535 -13.004999999999999Q190.62 -13.92 189.0 -13.92Q187.38 -13.92 186.465 -13.004999999999999Q185.55 -12.09 185.55 -10.379999999999999V-6.12Q185.55 -4.41 186.465 -3.495Q187.38 -2.58 189.0 -2.58Z M200.52 0.0V-16.5H203.73V-13.35Q203.97 -14.969999999999999 205.125 -15.885Q206.28 -16.8 208.14 -16.8Q210.6 -16.8 212.07 -15.225000000000001Q213.54 -13.65 213.54 -10.98V0.0H210.3V-10.5Q210.3 -12.209999999999999 209.43 -13.125Q208.56 -14.04 207.06 -14.04Q205.53 -14.04 204.64499999999998 -13.079999999999998Q203.76 -12.12 203.76 -10.41V0.0Z M222.24 0.0V-11.309999999999999H217.56V-14.25H222.24V-17.43Q222.24 -19.5 223.56 -20.7Q224.88 -21.9 227.16 -21.9H231.99V-19.02H227.22Q225.48 -19.02 225.48 -17.4V-14.25H231.99V-11.309999999999999H225.48V0.0Z M243.0 0.27Q239.94 0.27 238.125 -1.5Q236.31 -3.27 236.31 -6.33V-10.17Q236.31 -13.26 238.11 -15.015Q239.91 -16.77 243.0 -16.77Q246.09 -16.77 247.89 -15.015Q249.69 -13.26 249.69 -10.17V-6.33Q249.69 -3.27 247.875 -1.5Q246.06 0.27 243.0 0.27ZM243.0 -2.58Q244.62 -2.58 245.535 -3.495Q246.45 -4.41 246.45 -6.12V-10.379999999999999Q246.45 -12.09 245.535 -13.004999999999999Q244.62 -13.92 243.0 -13.92Q241.38 -13.92 240.465 -13.004999999999999Q239.55 -12.09 239.55 -10.379999999999999V-6.12Q239.55 -4.41 240.465 -3.495Q241.38 -2.58 243.0 -2.58Z M255.12 0.0V-16.5H258.33V-13.26Q258.57 -14.91 259.74 -15.855Q260.91 -16.8 262.83 -16.8Q265.38 -16.8 266.78999999999996 -15.21Q268.2 -13.62 268.2 -10.74V-9.27H264.96V-10.65Q264.96 -13.979999999999999 261.69 -13.979999999999999Q260.07 -13.979999999999999 259.21500000000003 -13.035Q258.36 -12.09 258.36 -10.29V0.0Z M271.59 0.0V-16.5H274.35V-14.19H274.41Q274.53 -15.36 275.28 -16.08Q276.03 -16.8 277.17 -16.8Q278.25 -16.8 279.015 -16.125Q279.78 -15.45 280.08 -14.309999999999999Q280.26 -15.45 281.01 -16.125Q281.76 -16.8 282.93 -16.8Q284.46 -16.8 285.435 -15.615Q286.41 -14.43 286.41 -12.57V0.0H283.47V-12.42Q283.47 -13.32 283.05 -13.844999999999999Q282.63 -14.37 281.88 -14.37Q281.13 -14.37 280.725 -13.86Q280.32 -13.35 280.32 -12.45V0.0H277.68V-12.42Q277.68 -13.32 277.275 -13.844999999999999Q276.87 -14.37 276.12 -14.37Q275.37 -14.37 274.95 -13.86Q274.53 -13.35 274.53 -12.45V0.0Z M295.35 0.3Q292.83 0.3 291.345 -1.125Q289.86 -2.55 289.86 -4.859999999999999Q289.86 -7.199999999999999 291.45000000000005 -8.625Q293.04 -10.049999999999999 295.68 -10.049999999999999H300.24V-11.25Q300.24 -14.1 297.03 -14.1Q295.59 -14.1 294.72 -13.559999999999999Q293.85 -13.02 293.79 -12.059999999999999H290.61Q290.76 -14.129999999999999 292.47 -15.465Q294.18 -16.8 297.06 -16.8Q300.12 -16.8 301.8 -15.344999999999999Q303.48 -13.889999999999999 303.48 -11.28V0.0H300.3V-3.09H300.27Q300.06 -1.5 298.77 -0.6Q297.48 0.3 295.35 0.3ZM296.28 -2.37Q298.11 -2.37 299.175 -3.255Q300.24 -4.14 300.24 -5.64V-7.77H295.92Q294.63 -7.77 293.865 -7.02Q293.1 -6.27 293.1 -5.1Q293.1 -3.84 293.94 -3.105Q294.78 -2.37 296.28 -2.37Z M308.52 0.0V-16.5H311.73V-13.35Q311.97 -14.969999999999999 313.125 -15.885Q314.28 -16.8 316.14 -16.8Q318.6 -16.8 320.07000000000005 -15.225000000000001Q321.54 -13.65 321.54 -10.98V0.0H318.3V-10.5Q318.3 -12.209999999999999 317.43 -13.125Q316.56 -14.04 315.06 -14.04Q313.53 -14.04 312.645 -13.079999999999998Q311.76 -12.12 311.76 -10.41V0.0Z M333.24 0.3Q330.15 0.3 328.28999999999996 -1.4100000000000001Q326.43 -3.12 326.43 -6.09V-10.41Q326.43 -13.379999999999999 328.28999999999996 -15.09Q330.15 -16.8 333.24 -16.8Q336.24 -16.8 338.03999999999996 -15.24Q339.84 -13.68 339.96 -10.98H336.75Q336.66 -12.389999999999999 335.71500000000003 -13.169999999999998Q334.77 -13.95 333.24 -13.95Q331.59 -13.95 330.63 -13.035Q329.67 -12.12 329.67 -10.44V-6.09Q329.67 -4.38 330.63 -3.465Q331.59 -2.55 333.24 -2.55Q334.8 -2.55 335.73 -3.3299999999999996Q336.66 -4.109999999999999 336.75 -5.55H339.96Q339.84 -2.85 338.03999999999996 -1.2750000000000001Q336.24 0.3 333.24 0.3Z M351.0 0.3Q347.97 0.3 346.14 -1.47Q344.31 -3.2399999999999998 344.31 -6.3V-10.2Q344.31 -13.26 346.14 -15.030000000000001Q347.97 -16.8 351.0 -16.8Q353.04 -16.8 354.54 -16.005Q356.04 -15.209999999999999 356.865 -13.77Q357.69 -12.33 357.69 -10.41V-7.4399999999999995H347.43V-6.09Q347.43 -4.35 348.39 -3.3899999999999997Q349.35 -2.4299999999999997 351.0 -2.4299999999999997Q352.35 -2.4299999999999997 353.25 -2.925Q354.15 -3.42 354.33 -4.29H357.54Q357.21 -2.19 355.42499999999995 -0.945Q353.64 0.3 351.0 0.3ZM347.43 -10.41V-9.719999999999999H354.57V-10.44Q354.57 -12.27 353.64 -13.26Q352.71 -14.25 351.0 -14.25Q349.29 -14.25 348.36 -13.245000000000001Q347.43 -12.24 347.43 -10.41Z" fill="#14B8A6"/><path d="M385.35 0.3Q382.83 0.3 381.345 -1.125Q379.86 -2.55 379.86 -4.859999999999999Q379.86 -7.199999999999999 381.45000000000005 -8.625Q383.04 -10.049999999999999 385.68 -10.049999999999999H390.24V-11.25Q390.24 -14.1 387.03 -14.1Q385.59 -14.1 384.72 -13.559999999999999Q383.85 -13.02 383.79 -12.059999999999999H380.61Q380.76 -14.129999999999999 382.47 -15.465Q384.18 -16.8 387.06 -16.8Q390.12 -16.8 391.8 -15.344999999999999Q393.48 -13.889999999999999 393.48 -11.28V0.0H390.3V-3.09H390.27Q390.06 -1.5 388.77 -0.6Q387.48 0.3 385.35 0.3ZM386.28 -2.37Q388.11 -2.37 389.175 -3.255Q390.24 -4.14 390.24 -5.64V-7.77H385.92Q384.63 -7.77 383.865 -7.02Q383.1 -6.27 383.1 -5.1Q383.1 -3.84 383.94 -3.105Q384.78 -2.37 386.28 -2.37Z M399.12 0.0V-16.5H402.33V-13.26Q402.57 -14.91 403.74 -15.855Q404.91 -16.8 406.83 -16.8Q409.38 -16.8 410.78999999999996 -15.21Q412.2 -13.62 412.2 -10.74V-9.27H408.96V-10.65Q408.96 -13.979999999999999 405.69 -13.979999999999999Q404.07 -13.979999999999999 403.21500000000003 -13.035Q402.36 -12.09 402.36 -10.29V0.0Z M423.0 0.3Q419.97 0.3 418.14 -1.47Q416.31 -3.2399999999999998 416.31 -6.3V-10.2Q416.31 -13.26 418.14 -15.030000000000001Q419.97 -16.8 423.0 -16.8Q425.04 -16.8 426.54 -16.005Q428.04 -15.209999999999999 428.865 -13.77Q429.69 -12.33 429.69 -10.41V-7.4399999999999995H419.43V-6.09Q419.43 -4.35 420.39 -3.3899999999999997Q421.35 -2.4299999999999997 423.0 -2.4299999999999997Q424.35 -2.4299999999999997 425.25 -2.925Q426.15 -3.42 426.33 -4.29H429.54Q429.21 -2.19 427.42499999999995 -0.945Q425.64 0.3 423.0 0.3ZM419.43 -10.41V-9.719999999999999H426.57V-10.44Q426.57 -12.27 425.64 -13.26Q424.71 -14.25 423.0 -14.25Q421.29 -14.25 420.36 -13.245000000000001Q419.43 -12.24 419.43 -10.41Z M460.23 0.3Q458.43 0.3 457.245 -0.6Q456.06 -1.5 455.73 -3.12V0.0H452.52V-21.9H455.76V-17.189999999999998L455.67 -13.379999999999999Q456.03 -14.969999999999999 457.245 -15.885Q458.46 -16.8 460.23 -16.8Q462.69 -16.8 464.15999999999997 -15.120000000000001Q465.63 -13.44 465.63 -10.559999999999999V-5.91Q465.63 -3.06 464.15999999999997 -1.3800000000000001Q462.69 0.3 460.23 0.3ZM459.09 -2.52Q460.65 -2.52 461.52 -3.3449999999999998Q462.39 -4.17 462.39 -6.0V-10.53Q462.39 -12.33 461.52 -13.155Q460.65 -13.979999999999999 459.09 -13.979999999999999Q457.53 -13.979999999999999 456.645 -13.035Q455.76 -12.09 455.76 -10.379999999999999V-6.1499999999999995Q455.76 -4.41 456.645 -3.465Q457.53 -2.52 459.09 -2.52Z M477.0 0.3Q473.97 0.3 472.14 -1.47Q470.31 -3.2399999999999998 470.31 -6.3V-10.2Q470.31 -13.26 472.14 -15.030000000000001Q473.97 -16.8 477.0 -16.8Q479.04 -16.8 480.54 -16.005Q482.04 -15.209999999999999 482.865 -13.77Q483.69 -12.33 483.69 -10.41V-7.4399999999999995H473.43V-6.09Q473.43 -4.35 474.39 -3.3899999999999997Q475.35 -2.4299999999999997 477.0 -2.4299999999999997Q478.35 -2.4299999999999997 479.25 -2.925Q480.15 -3.42 480.33 -4.29H483.54Q483.21 -2.19 481.42499999999995 -0.945Q479.64 0.3 477.0 0.3ZM473.43 -10.41V-9.719999999999999H480.57V-10.44Q480.57 -12.27 479.64 -13.26Q478.71 -14.25 477.0 -14.25Q475.29 -14.25 474.36 -13.245000000000001Q473.43 -12.24 473.43 -10.41Z M497.55 0.0Q495.21 0.0 493.815 -1.365Q492.42 -2.73 492.42 -5.01V-18.96H486.87V-21.9H495.66V-5.069999999999999Q495.66 -4.08 496.20000000000005 -3.51Q496.74 -2.94 497.67 -2.94H502.65V0.0Z M513.0 0.27Q509.94 0.27 508.125 -1.5Q506.31 -3.27 506.31 -6.33V-10.17Q506.31 -13.26 508.11 -15.015Q509.91 -16.77 513.0 -16.77Q516.09 -16.77 517.8900000000001 -15.015Q519.69 -13.26 519.69 -10.17V-6.33Q519.69 -3.27 517.875 -1.5Q516.06 0.27 513.0 0.27ZM513.0 -2.58Q514.62 -2.58 515.5350000000001 -3.495Q516.45 -4.41 516.45 -6.12V-10.379999999999999Q516.45 -12.09 515.5350000000001 -13.004999999999999Q514.62 -13.92 513.0 -13.92Q511.38 -13.92 510.46500000000003 -13.004999999999999Q509.55 -12.09 509.55 -10.379999999999999V-6.12Q509.55 -4.41 510.46500000000003 -3.495Q511.38 -2.58 513.0 -2.58Z M524.52 0.0V-16.5H527.73V-13.35Q527.97 -14.969999999999999 529.125 -15.885Q530.28 -16.8 532.14 -16.8Q534.6 -16.8 536.0699999999999 -15.225000000000001Q537.54 -13.65 537.54 -10.98V0.0H534.3V-10.5Q534.3 -12.209999999999999 533.43 -13.125Q532.56 -14.04 531.06 -14.04Q529.53 -14.04 528.645 -13.079999999999998Q527.76 -12.12 527.76 -10.41V0.0Z M544.68 5.3999999999999995V2.61H549.33Q550.68 2.61 551.46 1.8599999999999999Q552.24 1.1099999999999999 552.24 -0.18V-1.41L552.3 -4.17Q551.91 -2.6999999999999997 550.755 -1.89Q549.6 -1.08 547.89 -1.08Q545.34 -1.08 543.87 -2.73Q542.4 -4.38 542.4 -7.26V-10.59Q542.4 -13.44 543.87 -15.120000000000001Q545.34 -16.8 547.89 -16.8Q549.6 -16.8 550.74 -15.99Q551.88 -15.18 552.27 -13.709999999999999V-16.5H555.45V-0.12Q555.45 2.4299999999999997 553.815 3.9149999999999996Q552.18 5.3999999999999995 549.36 5.3999999999999995ZM548.94 -3.81Q550.47 -3.81 551.355 -4.755Q552.24 -5.7 552.24 -7.41V-10.41Q552.24 -12.09 551.355 -13.035Q550.47 -13.979999999999999 548.94 -13.979999999999999Q547.35 -13.979999999999999 546.495 -13.079999999999998Q545.64 -12.18 545.64 -10.62V-7.199999999999999Q545.64 -5.609999999999999 546.495 -4.71Q547.35 -3.81 548.94 -3.81Z M586.65 0.0Q584.46 0.0 583.1700000000001 -1.26Q581.88 -2.52 581.88 -4.68V-13.559999999999999H577.23V-16.5H581.88V-21.15H585.12V-16.5H591.78V-13.559999999999999H585.12V-4.71Q585.12 -3.9299999999999997 585.5699999999999 -3.4349999999999996Q586.02 -2.94 586.8 -2.94H591.63V0.0Z M603.0 0.27Q599.94 0.27 598.125 -1.5Q596.31 -3.27 596.31 -6.33V-10.17Q596.31 -13.26 598.1099999999999 -15.015Q599.91 -16.77 603.0 -16.77Q606.09 -16.77 607.8900000000001 -15.015Q609.69 -13.26 609.69 -10.17V-6.33Q609.69 -3.27 607.875 -1.5Q606.06 0.27 603.0 0.27ZM603.0 -2.58Q604.62 -2.58 605.5350000000001 -3.495Q606.45 -4.41 606.45 -6.12V-10.379999999999999Q606.45 -12.09 605.5350000000001 -13.004999999999999Q604.62 -13.92 603.0 -13.92Q601.38 -13.92 600.4649999999999 -13.004999999999999Q599.55 -12.09 599.55 -10.379999999999999V-6.12Q599.55 -4.41 600.4649999999999 -3.495Q601.38 -2.58 603.0 -2.58Z M638.97 0.3Q635.97 0.3 634.215 -1.425Q632.46 -3.15 632.46 -6.12V-16.5H635.7V-6.1499999999999995Q635.7 -4.47 636.57 -3.495Q637.44 -2.52 638.97 -2.52Q640.53 -2.52 641.415 -3.495Q642.3 -4.47 642.3 -6.1499999999999995V-16.5H645.54V-6.12Q645.54 -3.15 643.755 -1.425Q641.97 0.3 638.97 0.3Z M656.34 0.27Q653.49 0.27 651.87 -1.02Q650.25 -2.31 650.25 -4.62H653.46Q653.46 -3.57 654.21 -2.985Q654.96 -2.4 656.34 -2.4H657.66Q659.07 -2.4 659.85 -2.985Q660.63 -3.57 660.63 -4.6499999999999995Q660.63 -6.54 658.62 -6.81L654.27 -7.41Q652.44 -7.6499999999999995 651.435 -8.865Q650.43 -10.08 650.43 -12.03Q650.43 -14.28 651.96 -15.524999999999999Q653.49 -16.77 656.28 -16.77H657.63Q660.21 -16.77 661.815 -15.54Q663.42 -14.309999999999999 663.51 -12.299999999999999H660.27Q660.21 -13.11 659.505 -13.635Q658.8 -14.16 657.63 -14.16H656.28Q654.99 -14.16 654.2850000000001 -13.59Q653.58 -13.02 653.58 -12.059999999999999Q653.58 -10.53 655.29 -10.29L659.37 -9.75Q663.78 -9.15 663.78 -4.68Q663.78 -2.31 662.19 -1.02Q660.6 0.27 657.66 0.27Z" fill="#0E1726"/></g></g><rect class="rule" x="34.0" y="213" width="666" height="3" rx="1.5" fill="#14B8A6"/></svg>